<svg width="64" height="64" xmlns="http://www.w3.org/2000/svg">

 <g>
  <title>background</title>
  <rect fill="none" id="canvas_background" height="402" width="582" y="-1" x="-1"/>
 </g>
 <g>
  <title>Layer 1</title>
  <path opacity="0.2" id="svg_4" fill="#231F20" d="m32,12c-8.545,0 -18,5.375 -21.083,15.656c-1.558,5.194 5.187,3.119 5.646,9.157c0.375,4.938 -1.113,6.599 -1.437,9.562c-0.438,4 8.875,10 17.24,9.621c12.274,-0.557 21.679,-9.708 21.679,-21.996s-9.757,-22 -22.045,-22zm-8,36c-2.209,0 -4,-1.791 -4,-4c0,-2.209 1.791,-4 4,-4s4,1.791 4,4c0,2.209 -1.791,4 -4,4z"/>
  <path id="svg_6" fill="#e78a4e" d="m32,10c-8.545,0 -18,5.375 -21.083,15.656c-1.558,5.194 5.187,3.119 5.646,9.157c0.375,4.938 -1.113,6.599 -1.437,9.562c-0.438,4 8.875,10 17.24,9.621c12.274,-0.557 21.679,-9.708 21.679,-21.996s-9.757,-22 -22.045,-22zm-8,36c-2.209,0 -4,-1.791 -4,-4c0,-2.209 1.791,-4 4,-4s4,1.791 4,4c0,2.209 -1.791,4 -4,4z"/>
  <circle opacity="0.2" id="svg_8" r="4" fill="#231F20" cy="25" cx="20.715"/>
  <circle opacity="0.2" id="svg_10" r="4" fill="#231F20" cy="19.613" cx="32"/>
  <circle opacity="0.2" id="svg_12" r="4" fill="#231F20" cy="24.728" cx="43.211"/>
  <circle opacity="0.2" id="svg_14" r="4" fill="#231F20" cy="37.271" cx="46.188"/>
  <circle opacity="0.2" id="svg_16" r="4" fill="#231F20" cy="47.104" cx="37.104"/>
  <circle id="svg_18" r="4" fill="#ea6962" cy="22.921322" cx="20.715"/>
  <circle id="svg_20" r="4" fill="#a9b665" cy="17.613" cx="32"/>
  <circle id="svg_22" r="4" fill="#7daea3" cy="22.728" cx="43.211"/>
  <circle id="svg_24" r="4" fill="#d4b398" cy="35.271" cx="46.188"/>
  <circle id="svg_26" r="4" fill="#d3869b" cy="45.104" cx="37.104"/>
 </g>
</svg>