<svg width="32" height="32" xmlns="http://www.w3.org/2000/svg">

 <g>
  <title>background</title>
  <rect fill="none" id="canvas_background" height="402" width="582" y="-1" x="-1"/>
 </g>
 <g>
  <title>Layer 1</title>
  <circle stroke="null" fill="#d4be98" id="svg_2" r="9" cy="16" cx="16"/>
  <path fill="#d4be98" id="svg_3" d="m17.5,4.13867l0,-2.13867c0,-0.82813 -0.67139,-1.5 -1.5,-1.5s-1.5,0.67188 -1.5,1.5l0,2.13867c0,0.82813 0.67139,1.5 1.5,1.5s1.5,-0.67187 1.5,-1.5z"/>
  <path fill="#d4be98" id="svg_4" d="m8.67383,8.67285c0.58545,-0.58594 0.58545,-1.53613 -0.00049,-2.12109l-1.51221,-1.51172c-0.58594,-0.58594 -1.53564,-0.58594 -2.12158,0c-0.58545,0.58594 -0.58545,1.53613 0.00049,2.12109l1.51221,1.51172c0.29296,0.29297 0.67675,0.43945 1.06054,0.43945s0.76807,-0.14648 1.06104,-0.43945z"/>
  <path fill="#d4be98" id="svg_5" d="m2,17.5l2.13818,0c0.82861,0 1.5,-0.67188 1.5,-1.5s-0.67139,-1.5 -1.5,-1.5l-2.13818,0c-0.82861,0 -1.5,0.67188 -1.5,1.5s0.67139,1.5 1.5,1.5z"/>
  <path fill="#d4be98" id="svg_6" d="m5.03955,26.95996c0.29297,0.29297 0.67725,0.43945 1.06104,0.43945s0.76758,-0.14648 1.06055,-0.43945l1.51221,-1.51172c0.58594,-0.58496 0.58594,-1.53516 0.00049,-2.12109c-0.58594,-0.58594 -1.53564,-0.58594 -2.12158,0l-1.51221,1.51172c-0.58595,0.58496 -0.58595,1.53515 -0.0005,2.12109z"/>
  <path fill="#d4be98" id="svg_7" d="m14.5,27.86133l0,2.13867c0,0.82813 0.67139,1.5 1.5,1.5s1.5,-0.67188 1.5,-1.5l0,-2.13867c0,-0.82813 -0.67139,-1.5 -1.5,-1.5s-1.5,0.67187 -1.5,1.5z"/>
  <path fill="#d4be98" id="svg_8" d="m24.83887,26.95996c0.29297,0.29297 0.67676,0.43945 1.06055,0.43945s0.76758,-0.14648 1.06055,-0.43945c0.58594,-0.58594 0.58594,-1.53516 0,-2.12109l-1.51172,-1.51172c-0.58594,-0.58594 -1.53516,-0.58594 -2.12109,0s-0.58594,1.53516 0,2.12109l1.51171,1.51172z"/>
  <path fill="#d4be98" id="svg_9" d="m30,14.5l-2.13867,0c-0.82813,0 -1.5,0.67188 -1.5,1.5s0.67188,1.5 1.5,1.5l2.13867,0c0.82813,0 1.5,-0.67188 1.5,-1.5s-0.67187,-1.5 -1.5,-1.5z"/>
  <path fill="#d4be98" id="svg_10" d="m26.95996,5.04004c-0.58594,-0.58594 -1.53516,-0.58594 -2.12109,0l-1.51172,1.51172c-0.58594,0.58594 -0.58594,1.53516 0,2.12109c0.29297,0.29297 0.67676,0.43945 1.06055,0.43945s0.76758,-0.14648 1.06055,-0.43945l1.51172,-1.51172c0.58593,-0.58593 0.58593,-1.53515 -0.00001,-2.12109z"/>
 </g>
</svg>