<svg width="32" height="31" xmlns="http://www.w3.org/2000/svg">

 <g>
  <title>background</title>
  <rect fill="none" id="canvas_background" height="402" width="582" y="-1" x="-1"/>
 </g>
 <g>
  <title>Layer 1</title>
  <path id="svg_1" fill="#7daea3" d="m15.998,-0.501c8.284,0 15,6.715 15,15c0,8.283 -6.716,15 -15,15s-15,-6.717 -15,-15c0,-8.286 6.716,-15 15,-15z"/>
  <path id="svg_2" fill="#e78a4e" d="m18.562,30.274c7.614,-1.229 13.437,-7.814 13.437,-15.775l-0.146,0.181c0.228,-1.513 0.188,-2.861 -0.125,-4.037c-0.112,0.871 -0.234,1.397 -0.357,1.608c-0.001,-0.068 -0.018,-0.976 -0.307,-2.243c-0.137,-0.924 -0.338,-1.793 -0.616,-2.596c0.068,0.368 0.108,0.675 0.128,0.953c-1.162,-3.118 -4.023,-6.957 -11.072,-6.867c0,0 2.479,0.262 3.646,2.029c0,0 -1.193,-0.285 -2.095,0.152c1.099,0.438 2.052,0.896 2.863,1.374l0.07,0.043c0.208,0.125 0.385,0.253 0.573,0.38c1.498,1.052 2.888,2.553 2.782,4.489c-0.323,-0.51 -0.753,-0.844 -1.304,-1.012c0.679,2.66 0.746,4.857 0.197,6.59c-0.377,-1.154 -0.724,-1.846 -1.033,-2.09c0.431,3.566 -0.15,6.203 -1.739,7.922c0.302,-1.049 0.422,-1.908 0.354,-2.586c-1.867,2.822 -3.991,4.281 -6.372,4.371c-0.941,-0.008 -1.83,-0.15 -2.666,-0.426c-1.228,-0.415 -2.339,-1.124 -3.328,-2.13c1.544,0.129 2.954,-0.139 4.195,-0.772l2.033,-1.332l-0.008,-0.006c0.264,-0.1 0.512,-0.092 0.754,0.021c0.496,-0.068 0.67,-0.334 0.504,-0.783c-0.24,-0.334 -0.603,-0.637 -1.069,-0.904c-1.017,-0.531 -2.079,-0.447 -3.187,0.26c-1.055,0.6 -2.07,0.576 -3.058,-0.062c-0.647,-0.447 -1.272,-1.049 -1.876,-1.801l-0.24,-0.355c-0.113,0.852 0.015,1.945 0.398,3.291l0.008,0.018l-0.008,-0.016c-0.384,-1.346 -0.511,-2.442 -0.398,-3.293l0,-0.008c0.029,-0.744 0.337,-1.154 0.924,-1.246l-0.249,-0.021l0.251,0.021c0.663,0.061 1.424,0.213 2.282,0.463c0.144,-0.828 -0.045,-1.695 -0.564,-2.584l0,-0.016c0.806,-0.752 1.521,-1.299 2.132,-1.648c0.271,-0.145 0.429,-0.365 0.481,-0.662l0.022,-0.016l0.008,-0.008l0.03,-0.029c0.158,-0.236 0.105,-0.426 -0.165,-0.594c-0.565,0.031 -1.131,-0.008 -1.695,-0.121l-0.008,0.023c-0.233,-0.068 -0.527,-0.275 -0.889,-0.625l-0.927,-0.912l-0.278,-0.219l0,0.029l-0.008,0l0.008,-0.037l-0.053,-0.055l0.075,-0.053c0.128,-0.691 0.339,-1.285 0.64,-1.795l0.068,-0.061c0.302,-0.502 0.881,-1.041 1.732,-1.617c-1.582,0.197 -3.013,0.91 -4.285,2.143c-1.055,-0.387 -2.305,-0.305 -3.744,0.25l-0.173,0.132l-0.013,0.007l0.188,-0.138l0.008,-0.008c-0.905,-0.416 -1.515,-1.611 -1.809,-3.564c-1.152,1.141 -1.71,3.178 -1.673,6.119l-0.33,0.499l-0.085,0.058l-0.017,0.016l-0.007,0.007l-0.016,0.033c-0.175,0.274 -0.416,0.688 -0.72,1.244c-0.437,0.786 -0.584,1.446 -0.627,2.021l-0.004,0.007l0.002,0.019l-0.014,0.151l0.025,-0.04c0.003,0.133 0.006,0.267 0.04,0.387l0.934,-0.768c-0.339,0.859 -0.564,1.77 -0.678,2.736l-0.027,0.442l-0.293,-0.335c0,3.428 1.088,6.597 2.924,9.201l0.055,0.086l0.088,0.105c1.32,1.813 3.006,3.338 4.958,4.464c1.403,0.831 2.911,1.413 4.519,1.759l0.331,0.074c0.333,0.064 0.674,0.112 1.016,0.155c0.253,0.033 0.506,0.065 0.762,0.087l0.34,0.039l0.483,0.003l0.525,0.026l0.418,-0.021l0.689,-0.034c0.409,-0.028 0.812,-0.073 1.212,-0.131l0.243,-0.036zm-9.409,-16.75l0,0zm19.527,-2.741l-0.007,0.131l0.005,-0.132l0.002,0.001z"/>
 </g>
</svg>