<svg width="24" height="24" xmlns="http://www.w3.org/2000/svg">

 <g>
  <title>background</title>
  <rect fill="none" id="canvas_background" height="402" width="582" y="-1" x="-1"/>
 </g>
 <g>
  <title>Layer 1</title>
  <path id="svg_2" fill="#928374" d="m8.875,19c0.0128,0.169 0.0312,0.327 0.0312,0.5c0,1.863 -0.7465,3.505 -1.9062,4.5l4,0l2,0l4,0c-1.16,-0.995 -1.906,-2.637 -1.906,-4.5c0,-0.173 0.018,-0.331 0.031,-0.5l-2.125,0l-2,0l-2.125,0z"/>
  <path id="svg_3" fill="#7c6f64" d="m8.875,18.999976c0.0128,0.1 0.0312,0.3 0.0312,0.5c0,0.5 -0.0462,1 -0.1562,1.5l6.5,0c-0.11,-0.5 -0.156,-1 -0.156,-1.5c0,-0.2 0.018,-0.4 0.031,-0.5l-2.125,0l-2,0l-2.125,0z"/>
  <path id="svg_4" fill="#a89984" d="m1,2.999976c-0.55228,0 -1,0.4 -1,1l0,1l0,2l0,2l0,2l0,1l0,1l0,1l0,2l0,2l0,1c0,0.5 0.44772,1 1,1l1,0l13,0l6,0l1,0l1,0c0.552,0 1,-0.5 1,-1l0,-1l0,-7l0,-1l0,-1l0,-2l0,-2l0,-1c0,-0.6 -0.448,-1 -1,-1l-1,0l-5,0l-1,0l-9,0l-4,0l-1,0l-1,0z"/>
  <rect id="svg_5" y="3.93937" x="1" width="22" height="14" fill="#32302f"/>
  <path id="svg_6" fill="#292828" d="m23,4.999976l-21,13l19.582,0l1.418,0l0,-1.6l0,-11.4z"/>
 </g>
</svg>