<svg width="128" height="128" xmlns="http://www.w3.org/2000/svg">
 <title/>

 <g>
  <title>background</title>
  <rect fill="none" id="canvas_background" height="402" width="582" y="-1" x="-1"/>
 </g>
 <g>
  <title>Layer 1</title>
  <path fill="#d4be98" id="svg_1" d="m6,120a6.45,6.45 0 0 0 6,-6l0,-74a4,4 0 0 1 4,-4l104,0l0,-7a5,5 0 0 0 -5,-5l-66,0a4.92,4.92 0 0 1 -5,-5l0,-6a5,5 0 0 0 -5,-5l-33.84,0a5.3,5.3 0 0 0 -5.16,5.23l0,100.77a6,6 0 0 0 6,6z"/>
  <path fill="#d4be98" id="svg_2" d="m124,44l-100,0a4,4 0 0 0 -4,4l0,66a6.45,6.45 0 0 1 -6,6l108,0a6,6 0 0 0 6,-6l0,-66a4,4 0 0 0 -4,-4z"/>
 </g>
</svg>