<svg width="50" height="50" xmlns="http://www.w3.org/2000/svg">

 <g>
  <title>background</title>
  <rect fill="none" id="canvas_background" height="402" width="582" y="-1" x="-1"/>
 </g>
 <g>
  <title>Layer 1</title>
  <g id="svg_20">
   <path fill="#a9b665" id="svg_6" d="m25.96122,21.966642l0,-2.7l-3.87,-0.73c-0.21,-0.89 -0.56,-1.71 -1.02,-2.46l2.22,-3.25l-1.91,-1.92l-3.25,2.23c-0.75,-0.47 -1.58,-0.81 -2.47,-1.02l-0.73,-3.88l-2.7,0l-0.73,3.88c-0.88,0.21 -1.71,0.55 -2.47,1.02l-3.25,-2.23l-1.91,1.92l2.22,3.25c-0.46,0.75 -0.81,1.57 -1.02,2.46l-3.87,0.73l0,2.7l3.87,0.73c0.21,0.88 0.56,1.71 1.02,2.46l-2.22,3.26l1.91,1.91l3.26,-2.22c0.75,0.46 1.58,0.81 2.46,1.02l0.73,3.87l2.7,0l0.73,-3.87c0.89,-0.21 1.71,-0.56 2.46,-1.02l3.26,2.22l1.91,-1.91l-2.22,-3.26c0.46,-0.75 0.81,-1.58 1.02,-2.46l3.87,-0.73zm-12.38,4.72c-3.35,0 -6.07,-2.72 -6.07,-6.07c0,-3.35 2.72,-6.07 6.07,-6.07c3.35,0 6.07,2.72 6.07,6.07c0,3.35 -2.72,6.07 -6.07,6.07z" class="st3"/>
   <path fill="#504945" id="svg_12" d="m23.90122,27.996642l-1.95,-2.87c0.31,-0.57 0.56,-1.16 0.74,-1.78l3.4,-0.64c0.35,-0.07 0.61,-0.38 0.61,-0.74l0,-2.7c0,-0.36 -0.26,-0.67 -0.61,-0.74l-3.4,-0.64c-0.18,-0.61 -0.43,-1.21 -0.74,-1.78l1.95,-2.86c0.2,-0.3 0.17,-0.7 -0.09,-0.95l-1.91,-1.92c-0.26,-0.26 -0.66,-0.29 -0.96,-0.09l-2.86,1.96c-0.57,-0.31 -1.16,-0.55 -1.78,-0.74l-0.64,-3.41c-0.07,-0.35 -0.38,-0.61 -0.74,-0.61l-2.7,0c-0.36,0 -0.67,0.26 -0.74,0.61l-0.64,3.41c-0.62,0.18 -1.22,0.43 -1.78,0.74l-2.86,-1.96c-0.3,-0.2 -0.7,-0.17 -0.96,0.09l-1.91,1.92c-0.25,0.25 -0.29,0.65 -0.09,0.95l1.95,2.86c-0.31,0.57 -0.55,1.16 -0.74,1.78l-3.4,0.64c-0.35,0.07 -0.61,0.38 -0.61,0.74l0,2.7c0,0.36 0.26,0.67 0.61,0.74l3.4,0.64c0.18,0.62 0.43,1.21 0.74,1.78l-1.95,2.87c-0.2,0.3 -0.17,0.7 0.09,0.95l1.91,1.91c0.25,0.25 0.66,0.29 0.95,0.09l2.87,-1.95c0.57,0.31 1.16,0.56 1.78,0.74l0.64,3.41c0.07,0.35 0.38,0.61 0.74,0.61l2.7,0c0.36,0 0.67,-0.26 0.74,-0.61l0.64,-3.41c0.62,-0.18 1.21,-0.43 1.78,-0.74l2.87,1.95c0.3,0.2 0.7,0.17 0.95,-0.09l1.91,-1.91c0.26,-0.26 0.29,-0.66 0.09,-0.95zm-2.62,1.36l-2.75,-1.87c-0.24,-0.17 -0.56,-0.17 -0.82,-0.02c-0.7,0.43 -1.45,0.74 -2.24,0.93c-0.29,0.07 -0.51,0.3 -0.56,0.59l-0.62,3.26l-1.46,0l-0.62,-3.26c-0.05,-0.29 -0.28,-0.52 -0.56,-0.59c-0.79,-0.19 -1.54,-0.5 -2.24,-0.93c-0.25,-0.15 -0.57,-0.15 -0.82,0.02l-2.73,1.87l-1.03,-1.03l1.87,-2.75c0.17,-0.24 0.17,-0.56 0.02,-0.81c-0.43,-0.7 -0.74,-1.45 -0.93,-2.24c-0.07,-0.29 -0.3,-0.51 -0.59,-0.56l-3.26,-0.61l0,-1.46l3.26,-0.61c0.29,-0.05 0.52,-0.28 0.59,-0.56c0.19,-0.79 0.5,-1.54 0.93,-2.24c0.16,-0.25 0.15,-0.57 -0.02,-0.82l-1.87,-2.74l1.03,-1.03l2.74,1.87c0.25,0.17 0.57,0.17 0.82,0.02c0.69,-0.43 1.45,-0.74 2.25,-0.93c0.29,-0.07 0.51,-0.3 0.56,-0.59l0.62,-3.26l1.46,0l0.62,3.26c0.05,0.29 0.28,0.52 0.56,0.59c0.8,0.19 1.55,0.5 2.25,0.93c0.25,0.15 0.57,0.15 0.82,-0.02l2.74,-1.87l1.03,1.03l-1.87,2.74c-0.17,0.24 -0.17,0.56 -0.02,0.82c0.43,0.7 0.74,1.45 0.93,2.24c0.07,0.29 0.3,0.51 0.59,0.56l3.26,0.61l0,1.46l-3.26,0.61c-0.29,0.05 -0.52,0.28 -0.59,0.56c-0.19,0.79 -0.5,1.54 -0.93,2.24c-0.16,0.25 -0.15,0.57 0.02,0.81l1.87,2.75l-1.05,1.03z" class="st4"/>
   <path stroke="null" fill="#504945" id="svg_19" d="m13.576362,14.405843c-3.505808,0 -6.361604,2.808917 -6.361604,6.257176s2.855795,6.257176 6.361604,6.257176s6.361604,-2.808917 6.361604,-6.257176s-2.855795,-6.257176 -6.361604,-6.257176zm0,10.952679c-2.63202,0 -4.763211,-2.106687 -4.763211,-4.685021s2.141846,-4.685021 4.763211,-4.685021s4.763211,2.106687 4.763211,4.685021s-2.131191,4.685021 -4.763211,4.685021z" class="st4"/>
  </g>
  <g stroke="null" transform="rotate(-23.411046981811523 40.405193328857415,14.955467224121092) " id="svg_21">
   <path stroke="null" fill="#7daea3" id="svg_10" d="m49.385196,15.940467l0,-1.96l-2.8,-0.53c-0.15,-0.64 -0.4,-1.24 -0.74,-1.78l1.61,-2.36l-1.38,-1.38l-2.36,1.61c-0.54,-0.34 -1.14,-0.59 -1.78,-0.74l-0.53,-2.81l-1.96,0l-0.53,2.81c-0.64,0.15 -1.24,0.4 -1.78,0.74l-2.36,-1.61l-1.38,1.38l1.6,2.36c-0.33,0.54 -0.58,1.14 -0.73,1.78l-2.8,0.53l0,1.96l2.8,0.53c0.15,0.63 0.4,1.23 0.73,1.78l-1.6,2.36l1.38,1.38l2.36,-1.61c0.55,0.34 1.14,0.59 1.78,0.74l0.53,2.81l1.96,0l0.53,-2.81c0.64,-0.15 1.23,-0.4 1.78,-0.74l2.36,1.61l1.38,-1.38l-1.61,-2.36c0.34,-0.55 0.59,-1.15 0.74,-1.78l2.8,-0.53zm-8.96,2.25c-1.78,0 -3.23,-1.45 -3.23,-3.23c0,-1.79 1.45,-3.23 3.23,-3.23s3.23,1.44 3.23,3.23c0,1.78 -1.45,3.23 -3.23,3.23z" class="st2"/>
   <path stroke="null" fill="#504945" id="svg_16" d="m31.315196,16.670467l2.34,0.44c0.12,0.38 0.27,0.74 0.45,1.09l-1.34,1.98c-0.2,0.3 -0.17,0.7 0.09,0.95l1.38,1.38c0.25,0.25 0.66,0.29 0.95,0.09l1.98,-1.35c0.35,0.18 0.72,0.33 1.09,0.45l0.44,2.35c0.07,0.35 0.38,0.61 0.74,0.61l1.96,0c0.36,0 0.67,-0.26 0.74,-0.61l0.44,-2.35c0.38,-0.12 0.74,-0.27 1.09,-0.45l1.98,1.35c0.3,0.2 0.7,0.17 0.95,-0.09l1.38,-1.38c0.25,-0.25 0.29,-0.65 0.09,-0.95l-1.34,-1.98c0.18,-0.35 0.33,-0.72 0.45,-1.09l2.34,-0.44c0.35,-0.07 0.61,-0.38 0.61,-0.74l0,-1.95c0,-0.36 -0.26,-0.67 -0.61,-0.74l-2.34,-0.44c-0.12,-0.38 -0.27,-0.74 -0.45,-1.09l1.34,-1.97c0.2,-0.3 0.17,-0.7 -0.09,-0.95l-1.38,-1.39c-0.25,-0.26 -0.66,-0.29 -0.96,-0.09l-1.97,1.35c-0.35,-0.18 -0.72,-0.33 -1.1,-0.45l-0.44,-2.35c-0.07,-0.35 -0.38,-0.61 -0.74,-0.61l-1.96,0c-0.36,0 -0.67,0.26 -0.74,0.61l-0.44,2.35c-0.38,0.12 -0.75,0.27 -1.1,0.45l-1.97,-1.35c-0.3,-0.2 -0.7,-0.17 -0.96,0.09l-1.38,1.39c-0.25,0.25 -0.29,0.65 -0.09,0.95l1.34,1.97c-0.18,0.35 -0.33,0.72 -0.45,1.09l-2.34,0.44c-0.35,0.07 -0.61,0.38 -0.61,0.74l0,1.96c0.02,0.36 0.27,0.67 0.63,0.73zm0.89,-2.07l2.19,-0.41c0.29,-0.05 0.52,-0.28 0.59,-0.56c0.13,-0.55 0.35,-1.08 0.65,-1.56c0.16,-0.25 0.15,-0.57 -0.02,-0.82l-1.26,-1.84l0.5,-0.51l1.84,1.26c0.24,0.17 0.56,0.18 0.82,0.02c0.48,-0.3 1.01,-0.52 1.57,-0.65c0.29,-0.07 0.51,-0.3 0.56,-0.59l0.41,-2.2l0.71,0l0.41,2.2c0.07,0.29 0.29,0.52 0.57,0.59c0.55,0.13 1.08,0.35 1.57,0.65c0.25,0.15 0.57,0.15 0.82,-0.02l1.84,-1.26l0.5,0.51l-1.26,1.84c-0.17,0.24 -0.17,0.56 -0.02,0.82c0.3,0.49 0.52,1.01 0.65,1.56c0.07,0.29 0.3,0.51 0.59,0.56l2.19,0.41l0,0.71l-2.19,0.41c-0.29,0.05 -0.52,0.28 -0.59,0.56c-0.13,0.55 -0.35,1.07 -0.65,1.56c-0.16,0.25 -0.15,0.57 0.02,0.81l1.26,1.85l-0.5,0.5l-1.85,-1.26c-0.24,-0.17 -0.56,-0.17 -0.81,-0.02c-0.49,0.3 -1.01,0.52 -1.56,0.65c-0.29,0.07 -0.51,0.3 -0.56,0.59l-0.41,2.2l-0.71,0l-0.41,-2.19c-0.05,-0.29 -0.28,-0.52 -0.56,-0.59c-0.55,-0.13 -1.07,-0.35 -1.56,-0.65c-0.25,-0.15 -0.57,-0.15 -0.82,0.02l-1.87,1.27l-0.5,-0.5l1.26,-1.85c0.17,-0.24 0.17,-0.56 0.02,-0.81c-0.3,-0.48 -0.52,-1.01 -0.65,-1.56c-0.07,-0.29 -0.3,-0.51 -0.59,-0.56l-2.19,-0.41l0,-0.73z" class="st4"/>
   <path stroke="null" fill="#504945" id="svg_17" d="m40.415196,18.940467c2.2,0 3.98,-1.79 3.98,-3.98s-1.79,-3.98 -3.98,-3.98s-3.98,1.79 -3.98,3.98s1.78,3.98 3.98,3.98zm0,-6.46c1.37,0 2.48,1.11 2.48,2.48s-1.11,2.48 -2.48,2.48s-2.48,-1.11 -2.48,-2.48s1.11,-2.48 2.48,-2.48z" class="st4"/>
  </g>
  <g id="svg_22">
   <path fill="#ea6962" id="svg_8" d="m44.90381,34.572666l0,-2.6l-3.72,-0.7c-0.2,-0.85 -0.54,-1.65 -0.98,-2.37l2.13,-3.14l-1.83,-1.84l-3.14,2.14c-0.72,-0.44 -1.52,-0.78 -2.37,-0.98l-0.71,-3.73l-2.6,0l-0.71,3.73c-0.85,0.2 -1.65,0.54 -2.37,0.98l-3.14,-2.14l-1.83,1.84l2.13,3.14c-0.44,0.72 -0.78,1.52 -0.98,2.37l-3.72,0.7l0,2.6l3.72,0.71c0.2,0.85 0.54,1.64 0.98,2.37l-2.13,3.14l1.83,1.84l3.15,-2.14c0.72,0.44 1.51,0.78 2.36,0.98l0.71,3.73l2.6,0l0.71,-3.73c0.85,-0.2 1.64,-0.54 2.36,-0.98l3.15,2.14l1.83,-1.84l-2.13,-3.14c0.44,-0.73 0.78,-1.52 0.98,-2.37l3.72,-0.71zm-11.92,3.93c-2.88,0 -5.22,-2.34 -5.22,-5.23c0,-2.88 2.34,-5.22 5.22,-5.22c2.88,0 5.22,2.34 5.22,5.22c0,2.89 -2.34,5.23 -5.22,5.23z" class="st1"/>
   <path fill="#504945" id="svg_14" d="m45.03381,31.232666l-3.26,-0.62c-0.17,-0.58 -0.41,-1.15 -0.7,-1.69l1.87,-2.75c0.2,-0.3 0.17,-0.7 -0.09,-0.95l-1.83,-1.83c-0.26,-0.26 -0.66,-0.29 -0.96,-0.09l-2.74,1.88c-0.54,-0.29 -1.1,-0.52 -1.69,-0.7l-0.62,-3.27c-0.07,-0.35 -0.38,-0.61 -0.74,-0.61l-2.6,0c-0.36,0 -0.67,0.26 -0.74,0.61l-0.62,3.27c-0.59,0.17 -1.15,0.41 -1.69,0.7l-2.74,-1.88c-0.3,-0.2 -0.7,-0.17 -0.96,0.09l-1.83,1.84c-0.25,0.25 -0.29,0.65 -0.09,0.95l1.87,2.75c-0.29,0.54 -0.53,1.1 -0.7,1.69l-3.26,0.61c-0.35,0.07 -0.61,0.38 -0.61,0.74l0,2.6c0,0.36 0.26,0.67 0.61,0.74l3.26,0.62c0.17,0.58 0.41,1.15 0.7,1.69l-1.87,2.75c-0.2,0.3 -0.17,0.7 0.09,0.95l1.84,1.84c0.25,0.25 0.66,0.29 0.95,0.09l2.75,-1.87c0.54,0.29 1.1,0.53 1.69,0.7l0.62,3.27c0.07,0.35 0.38,0.61 0.74,0.61l2.6,0c0.36,0 0.67,-0.26 0.74,-0.61l0.62,-3.27c0.58,-0.17 1.15,-0.41 1.69,-0.7l2.75,1.87c0.3,0.2 0.7,0.17 0.95,-0.09l1.84,-1.84c0.25,-0.25 0.29,-0.65 0.09,-0.95l-1.87,-2.75c0.29,-0.54 0.53,-1.1 0.7,-1.69l3.26,-0.62c0.35,-0.07 0.61,-0.38 0.61,-0.74l0,-2.6c-0.01,-0.36 -0.27,-0.67 -0.63,-0.74zm-0.88,2.72l-3.12,0.59c-0.29,0.05 -0.52,0.28 -0.59,0.56c-0.18,0.76 -0.48,1.48 -0.89,2.15c-0.16,0.25 -0.15,0.57 0.02,0.81l1.79,2.63l-0.96,0.96l-2.63,-1.79c-0.24,-0.17 -0.56,-0.17 -0.81,-0.02c-0.67,0.41 -1.39,0.71 -2.15,0.89c-0.29,0.07 -0.51,0.3 -0.56,0.59l-0.59,3.12l-1.36,0l-0.59,-3.12c-0.05,-0.29 -0.28,-0.52 -0.56,-0.59c-0.76,-0.18 -1.48,-0.48 -2.15,-0.89c-0.25,-0.16 -0.57,-0.15 -0.81,0.02l-2.63,1.79l-0.96,-0.96l1.79,-2.63c0.17,-0.24 0.17,-0.56 0.02,-0.81c-0.41,-0.67 -0.71,-1.39 -0.89,-2.15c-0.07,-0.29 -0.3,-0.51 -0.59,-0.56l-3.12,-0.59l0,-1.36l3.12,-0.59c0.29,-0.05 0.52,-0.28 0.59,-0.56c0.18,-0.76 0.48,-1.48 0.89,-2.15c0.16,-0.25 0.15,-0.57 -0.02,-0.82l-1.79,-2.62l0.96,-0.96l2.62,1.79c0.25,0.17 0.56,0.18 0.82,0.02c0.67,-0.41 1.39,-0.71 2.16,-0.89c0.29,-0.07 0.51,-0.3 0.56,-0.59l0.59,-3.12l1.36,0l0.59,3.12c0.05,0.29 0.28,0.52 0.56,0.59c0.76,0.18 1.49,0.48 2.16,0.89c0.25,0.16 0.57,0.15 0.82,-0.02l2.62,-1.79l0.96,0.96l-1.79,2.62c-0.17,0.24 -0.17,0.56 -0.02,0.82c0.41,0.67 0.71,1.39 0.89,2.15c0.07,0.29 0.3,0.51 0.59,0.56l3.12,0.59l0,1.36l-0.02,0z" class="st4"/>
   <path fill="#504945" id="svg_15" d="m32.97381,27.302666c-3.29,0 -5.97,2.68 -5.97,5.97s2.68,5.97 5.97,5.97s5.97,-2.68 5.97,-5.97s-2.68,-5.97 -5.97,-5.97zm0,10.45c-2.47,0 -4.47,-2.01 -4.47,-4.47s2.01,-4.47 4.47,-4.47s4.47,2.01 4.47,4.47s-2,4.47 -4.47,4.47z" class="st4"/>
  </g>
 </g>
</svg>