<svg width="48" height="48" xmlns="http://www.w3.org/2000/svg">

 <g>
  <title>background</title>
  <rect fill="none" id="canvas_background" height="402" width="582" y="-1" x="-1"/>
 </g>
 <g>
  <title>Layer 1</title>
  <path id="svg_1" fill="none" d="m0,0l48,0l0,48l-48,0l0,-48z"/>
  <path fill="#292828" id="svg_2" d="m36,16l-2,0l0,-4c0,-5.52 -4.48,-10 -10,-10s-10,4.48 -10,10l0,4l-2,0c-2.21,0 -4,1.79 -4,4l0,20c0,2.21 1.79,4 4,4l24,0c2.21,0 4,-1.79 4,-4l0,-20c0,-2.21 -1.79,-4 -4,-4zm-12,18c-2.21,0 -4,-1.79 -4,-4s1.79,-4 4,-4s4,1.79 4,4s-1.79,4 -4,4zm6.2,-18l-12.4,0l0,-4c0,-3.42 2.78,-6.2 6.2,-6.2c3.42,0 6.2,2.78 6.2,6.2l0,4z"/>
 </g>
</svg>