<svg width="48" height="48" xmlns="http://www.w3.org/2000/svg">
 <title/>

 <desc/>
 <g>
  <title>background</title>
  <rect fill="none" id="canvas_background" height="402" width="582" y="-1" x="-1"/>
 </g>
 <g>
  <title>Layer 1</title>
  <path id="mute" fill="#d4be98" d="m11,18c-1.105011,0 -2,0.894989 -2,2l0,8c0,1.104004 0.894989,2 2,2l6.125,0c2.13501,2.285431 3.756866,3.952301 4.865631,5.000641c1.058441,1.000763 1.358795,1.000763 1.524811,1.000763c1.125,0 1.484558,-0.896393 1.484558,-2.001404l0,-20c0,-1.104004 -0.361725,-2 -1.484558,-2c-0.188843,0 -0.462219,-0.136597 -1.482025,0.945343c-0.619141,0.65686 -2.27594,2.341736 -4.970428,5.054657l-6.062988,0zm27.71701,1.221008c-0.292999,-0.295013 -0.77002,-0.295013 -1.063019,0l-2.653992,2.653992l-2.656006,-2.653992c-0.292999,-0.295013 -0.768005,-0.295013 -1.062988,0l-1.062012,1.061981c-0.292999,0.292999 -0.292999,0.77002 0,1.063019l2.653992,2.653992l-2.653992,2.656006c-0.290985,0.292999 -0.290985,0.768005 0,1.062988l1.062012,1.062012c0.294983,0.292999 0.769989,0.292999 1.062988,0l2.656006,-2.653992l2.653992,2.653992c0.292999,0.292999 0.77002,0.292999 1.063019,0l1.061981,-1.062012c0.295013,-0.294983 0.295013,-0.769989 0,-1.062988l-2.653992,-2.656006l2.653992,-2.653992c0.295013,-0.292999 0.295013,-0.77002 0,-1.063019l-1.061981,-1.061981z"/>
 </g>
</svg>