<svg width="24" height="24" xmlns="http://www.w3.org/2000/svg">

 <g>
  <title>background</title>
  <rect fill="none" id="canvas_background" height="402" width="582" y="-1" x="-1"/>
 </g>
 <g>
  <title>Layer 1</title>
  <path id="svg_1" fill-rule="evenodd" fill="#292828" d="m5,3c0.55228,0 1,0.44772 1,1l0,2.70615c2.46639,-2.80137 6.6435,-3.57224 10,-1.63435c3.8263,2.20914 5.1373,7.1019 2.9282,10.9282c-2.2091,3.8263 -7.1019,5.1373 -10.9282,2.9282c-0.47829,-0.2761 -0.64217,-0.8877 -0.36603,-1.366c0.27615,-0.4783 0.88774,-0.6422 1.36603,-0.366c2.8698,1.6568 6.5393,0.6736 8.1962,-2.1962c1.6568,-2.8698 0.6736,-6.5393 -2.1962,-8.19615c-2.5055,-1.44656 -5.62069,-0.88067 -7.47376,1.19615l2.47376,0c0.5523,0 1,0.44772 1,1c0,0.55228 -0.4477,1 -1,1l-5,0c-0.55228,0 -1,-0.44772 -1,-1l0,-5c0,-0.55228 0.44772,-1 1,-1z" clip-rule="evenodd"/>
 </g>
</svg>