<svg width="896" height="1024" xmlns="http://www.w3.org/2000/svg">

 <g>
  <title>background</title>
  <rect fill="none" id="canvas_background" height="402" width="582" y="-1" x="-1"/>
 </g>
 <g>
  <title>Layer 1</title>
  <rect stroke="#000" id="svg_2" height="703.625785" width="829.807863" y="123.22806" x="34.165384" stroke-width="1.5" fill="#a9b665"/>
  <path fill="#665c54" id="svg_1" d="m829.930664,95.98914l-768,0c-35.35,0 -64,28.65 -64,64l0,640c0,35.35 28.65,64 64,64l768,0c35.35,0 64,-28.65 64,-64l0,-640c0,-35.35 -28.65,-64 -64,-64zm-704,448l128,-128l-128,-128l64,-64l192,192l-192,192l-64,-64zm512,64l-256,0l0,-64l256,0l0,64z"/>
 </g>
</svg>