<svg width="1792" height="1792" xmlns="http://www.w3.org/2000/svg">

 <g>
  <title>background</title>
  <rect fill="none" id="canvas_background" height="402" width="582" y="-1" x="-1"/>
 </g>
 <g>
  <title>Layer 1</title>
  <path fill="#d4be98" id="svg_1" d="m832,352l0,1088q0,26 -19,45t-45,19t-45,-19l-333,-333l-262,0q-26,0 -45,-19t-19,-45l0,-384q0,-26 19,-45t45,-19l262,0l333,-333q19,-19 45,-19t45,19t19,45zm384,544q0,76 -42.5,141.5t-112.5,93.5q-10,5 -25,5q-26,0 -45,-18.5t-19,-45.5q0,-21 12,-35.5t29,-25t34,-23t29,-35.5t12,-57t-12,-57t-29,-35.5t-34,-23t-29,-25t-12,-35.5q0,-27 19,-45.5t45,-18.5q15,0 25,5q70,27 112.5,93t42.5,142zm256,0q0,153 -85,282.5t-225,188.5q-13,5 -25,5q-27,0 -46,-19t-19,-45q0,-39 39,-59q56,-29 76,-44q74,-54 115.5,-135.5t41.5,-173.5t-41.5,-173.5t-115.5,-135.5q-20,-15 -76,-44q-39,-20 -39,-59q0,-26 19,-45t45,-19q13,0 26,5q140,59 225,188.5t85,282.5zm256,0q0,230 -127,422.5t-338,283.5q-13,5 -26,5q-26,0 -45,-19t-19,-45q0,-36 39,-59q7,-4 22.5,-10.5t22.5,-10.5q46,-25 82,-51q123,-91 192,-227t69,-289t-69,-289t-192,-227q-36,-26 -82,-51q-7,-4 -22.5,-10.5t-22.5,-10.5q-39,-23 -39,-59q0,-26 19,-45t45,-19q13,0 26,5q211,91 338,283.5t127,422.5z"/>
 </g>
</svg>