<svg width="48" height="48" xmlns="http://www.w3.org/2000/svg">
 <title/>

 <desc/>
 <g>
  <title>background</title>
  <rect fill="none" id="canvas_background" height="402" width="582" y="-1" x="-1"/>
 </g>
 <g>
  <title>Layer 1</title>
  <path id="sound2" fill="#d4be98" d="m11,18.005554c-1.105011,0 -2,0.894989 -2,2l0,8c0,1.104004 0.894989,2 2,2l6.125,0c2.13501,2.285431 3.756866,3.952301 4.865631,5.000641c1.058441,1.000763 1.358795,1.000763 1.524811,1.000763c1.125,0 1.484558,-0.896393 1.484558,-2.001404l0,-20c0,-1.104004 -0.361725,-2 -1.484558,-2c-0.188843,0 -0.462219,-0.136597 -1.482025,0.945343c-0.619141,0.65686 -2.27594,2.341736 -4.970428,5.054657l-6.062988,0zm18.932007,-1.73056c2.368988,1.846008 3.928986,4.990997 3.928986,8.557007c0,3.567993 -1.559998,6.710999 -3.928986,8.55899l0,2.285004c3.829987,-1.710999 6.549988,-6.070984 6.549988,-11.175995c0,-5.106995 -2.720001,-9.464996 -6.549988,-11.175995l0,2.950989z"/>
 </g>
</svg>